<mxfile host="app.diagrams.net" modified="2023-06-20T13:17:09.309Z" agent="Mozilla/5.0 (Windows NT 10.0; Win64; x64; rv:109.0) Gecko/20100101 Firefox/114.0" version="21.5.0" etag="ZOdAylfGAW0wf8CfsMvM" type="github">
  <diagram name="PÃ¡gina-1" id="X39TojkY8iBn4ahe2Nj1">
    <mxGraphModel>
      <root>
        <mxCell id="0" />
        <mxCell id="1" parent="0" />
      </root>
    </mxGraphModel>
  </diagram>
</mxfile>
